<svg id="visual" viewBox="0 0 1920 1080" width="1920" height="1080" xmlns="http://www.w3.org/2000/svg" xmlns:xlink="http://www.w3.org/1999/xlink" version="1.1"><rect x="0" y="0" width="1920" height="1080" fill="#001220"></rect><defs><linearGradient id="grad1_0" x1="43.8%" y1="0%" x2="100%" y2="100%"><stop offset="14.444444444444446%" stop-color="#001220" stop-opacity="1"></stop><stop offset="85.55555555555554%" stop-color="#001220" stop-opacity="1"></stop></linearGradient></defs><defs><linearGradient id="grad2_0" x1="0%" y1="0%" x2="56.3%" y2="100%"><stop offset="14.444444444444446%" stop-color="#001220" stop-opacity="1"></stop><stop offset="85.55555555555554%" stop-color="#001220" stop-opacity="1"></stop></linearGradient></defs><g transform="translate(1920, 0)"><path d="M0 972C-87.9 848.6 -175.7 725.2 -280.5 677.2C-385.3 629.2 -507 656.6 -620.8 620.8C-734.7 585 -840.8 486 -898 372C-955.2 258 -963.6 129 -972 0L0 0Z" fill="#9d3131"></path></g><g transform="translate(0, 1080)"><path d="M0 -972C148 -977.7 295.9 -983.4 371.6 -897.1C447.2 -810.8 450.5 -632.4 541.6 -541.6C632.8 -450.9 811.7 -447.6 898 -372C984.4 -296.3 978.2 -148.1 972 0L0 0Z" fill="#9d3131"></path></g></svg>